HIERARCHY
ROOT Hips
{
  OFFSET 0 0 0
  CHANNELS 6 Xposition Yposition Zposition Zrotation Xrotation Yrotation
  JOINT Spine
  {
    OFFSET 0.00000000 0.00000000 0.00000000
    CHANNELS 3 Zrotation Xrotation Yrotation
    JOINT Spine1
    {
      OFFSET 0.19000000 0.00000000 0.00000000
      CHANNELS 3 Zrotation Xrotation Yrotation
      JOINT Neck
      {
        OFFSET 0.22500000 0.00600000 0.00000000
        CHANNELS 3 Zrotation Xrotation Yrotation
        JOINT Head
        {
          OFFSET 0.14000000 0.00030878 0.00000000
          CHANNELS 3 Zrotation Xrotation Yrotation
          End Site
          {
            OFFSET 0.17000000 0.00000000 0.00000000
          }
        }
      }
      JOINT LeftShoulder
      {
        OFFSET 0.19800000 0.03700000 0.04300000
        CHANNELS 3 Zrotation Xrotation Yrotation
        JOINT LeftArm
        {
          OFFSET 0.08000000 0.00000000 0.00000000
          CHANNELS 3 Zrotation Xrotation Yrotation
          JOINT LeftForeArm
          {
            OFFSET 0.15200000 0.00000000 0.00000000
            CHANNELS 3 Zrotation Xrotation Yrotation
            JOINT LeftHand
            {
              OFFSET 0.17800000 0.00000000 0.00000000
              CHANNELS 3 Zrotation Xrotation Yrotation
              End Site
              {
                OFFSET 0.07200000 0.00000000 0.00000000
              }
            }
          }
        }
      }
      JOINT RightShoulder
      {
        OFFSET 0.19800000 0.03700000 -0.04300000
        CHANNELS 3 Zrotation Xrotation Yrotation
        JOINT RightArm
        {
          OFFSET 0.08000000 0.00000000 0.00151654
          CHANNELS 3 Zrotation Xrotation Yrotation
          JOINT RightForeArm
          {
            OFFSET 0.15200000 0.00000000 0.00000000
            CHANNELS 3 Zrotation Xrotation Yrotation
            JOINT RightHand
            {
              OFFSET 0.17800000 0.00000000 0.00000000
              CHANNELS 3 Zrotation Xrotation Yrotation
              End Site
              {
                OFFSET 0.07200000 0.00000000 0.00000000
              }
            }
          }
        }
      }
    }
  }
  JOINT LeftUpLeg
  {
    OFFSET 0.05984250 -0.07666000 0.04788790
    CHANNELS 3 Zrotation Xrotation Yrotation
    JOINT LeftLeg
    {
      OFFSET 0.16000000 0.00000000 0.00000000
      CHANNELS 3 Zrotation Xrotation Yrotation
      JOINT LeftFoot
      {
        OFFSET 0.18000000 0.00000000 0.00000000
        CHANNELS 3 Zrotation Xrotation Yrotation
        End Site
        {
          OFFSET 0.00000000 -0.10800000 0.00000000
        }
      }
    }
  }
  JOINT RightUpLeg
  {
    OFFSET 0.05984250 -0.07665980 -0.04788790
    CHANNELS 3 Zrotation Xrotation Yrotation
    JOINT RightLeg
    {
      OFFSET 0.16000000 0.00000000 0.00000000
      CHANNELS 3 Zrotation Xrotation Yrotation
      JOINT RightFoot
      {
        OFFSET 0.18000000 0.00000000 0.00000000
        CHANNELS 3 Zrotation Xrotation Yrotation
        End Site
        {
          OFFSET 0.00000000 -0.10800000 0.00000000
        }
      }
    }
  }
  JOINT Tail
  {
    OFFSET 0.06836960 -0.00722574 0.00000000
    CHANNELS 3 Zrotation Xrotation Yrotation
    JOINT Tail1
    {
      OFFSET 0.12000000 0.00000000 0.00000000
      CHANNELS 3 Zrotation Xrotation Yrotation
      End Site
      {
        OFFSET 0.12000000 0.00000000 0.00000000
      }
    }
  }
}
MOTION
Frames:	10
Frame Time:	0.0166667
-1.0282917 0.4631760 0.0516634 9.36888 6.72894 -97.1675 -154.694 3.19097 -8.65295 -27.6847 -4.87563 24.1195 -13.7636 -15.7793 31.9536 -103.146 55.8547 120.846 -108.593 -31.9203 -142.97 140.402 -49.4531 -118.3 -47.4895 15.0925 -6.93336 -2.55665 1.40257 -17.0236 77.7284 -25.3978 41.7797 32.7196 -48.7454 -41.8941 -62.4457 -18.4513 1.50144 -4.02049 0.838685 0.764359 -127.987 -3.69992 -22.2302 79.0299 8.75343 9.67025 39.736 -2.83891 -5.63967 -127.325 3.41531 1.24398 73.5846 -0.352636 -5.65174 52.2584 0.304052 -2.02357 -37.6857 5.21764 -30.2038 10.31 23.43 -14.9724 
-1.0290811 0.4629320 0.0520234 9.47172 6.86466 -96.9560 -154.755 3.37504 -8.64284 -27.4568 -4.88413 24.644 -13.8622 -15.6197 31.905 -104.285 55.7848 120.718 -108.592 -31.8764 -143.069 140.201 -49.0691 -118.325 -47.375 14.9593 -7.02688 -2.66333 1.4627 -17.2217 77.7336 -25.4144 41.8519 32.7128 -48.3579 -42.0147 -62.2784 -18.5933 1.56239 -4.18974 0.88211 0.507224 -127.943 -3.68048 -22.222 79.1005 8.87472 9.62579 39.5522 -2.85635 -5.66466 -127.266 3.49691 1.2366 73.6848 -0.101825 -5.6633 52.2741 0.268575 -2.06769 -39.5899 2.78102 -23.6385 5.61388 18.5863 -9.5116 
-1.0297719 0.4626790 0.0522942 9.55650 6.99230 -96.7904 -154.953 3.54267 -8.74442 -27.0464 -4.87788 25.2632 -14.0031 -15.568 31.8538 -105.452 55.6339 120.478 -108.643 -31.8893 -143.192 140.132 -48.6052 -118.253 -47.1151 14.9581 -7.10722 -2.82283 1.45399 -17.0408 77.787 -25.3674 41.94 32.5722 -47.9623 -42.0563 -62.0664 -18.6056 1.5901 -4.37861 0.896693 0.404831 -127.871 -3.65266 -22.1777 79.171 8.93778 9.56518 39.3344 -2.86187 -5.67526 -127.162 3.56558 1.2351 73.7503 0.0654071 -5.68497 52.2318 0.24572 -2.09782 -40.8796 -0.20472 -16.5994 2.30277 10.394 -4.3496 
-1.0303442 0.4625000 0.0524513 9.63231 7.09969 -96.6577 -155.207 3.69369 -8.9203 -26.5422 -4.87425 25.9574 -14.1041 -15.6537 31.9017 -106.606 55.5533 120.094 -108.721 -31.9509 -143.279 140.196 -48.2359 -118.091 -46.9757 14.7756 -7.13797 -2.84451 1.48387 -17.1556 77.8416 -25.3662 42.1712 32.0667 -47.6197 -42.3827 -61.6688 -18.7478 1.60424 -4.76287 0.905457 0.397925 -127.823 -3.62765 -22.1797 79.2557 8.9723 9.54068 39.1616 -2.86726 -5.68668 -127 3.63689 1.26323 73.7802 0.0972906 -5.72139 52.0985 0.238916 -2.10067 -41.3605 -3.58312 -9.21867 0.848662 0.872437 0.0118315 
-1.0307733 0.4623960 0.0524529 9.67568 7.17332 -96.5580 -155.477 3.78859 -9.27233 -26.0109 -4.98917 26.9355 -14.2297 -15.6619 31.8739 -107.775 55.7571 119.738 -108.691 -31.9466 -143.2 140.355 -47.9084 -117.905 -46.8964 14.6749 -7.13569 -2.87789 1.50318 -17.2057 77.8173 -25.408 42.1915 31.7477 -47.2443 -42.4725 -61.3811 -18.8381 1.58281 -5.06914 0.906866 0.349409 -127.816 -3.66107 -22.2185 79.3451 9.03118 9.53443 39.0791 -2.86827 -5.68702 -126.927 3.63207 1.30678 73.8707 0.0737166 -5.72682 52.0502 0.241018 -2.09706 -40.6671 -7.20563 -1.42166 1.09886 -8.26025 3.62813 
-1.0312290 0.4624140 0.0523232 9.65692 7.20751 -96.4427 -155.729 3.85212 -9.56817 -25.5503 -5.14986 27.8752 -14.2926 -15.7372 31.8502 -108.523 56.0701 119.399 -108.608 -31.8975 -143.068 140.527 -47.5444 -117.723 -46.6944 14.6802 -7.1712 -2.96138 1.51299 -17.1611 77.8339 -25.3527 42.0974 31.4339 -46.92 -42.3792 -61.2466 -18.6877 1.5262 -5.13153 0.892751 0.342345 -127.855 -3.69982 -22.0717 79.406 8.942 9.45859 39.1582 -2.85096 -5.65852 -126.878 3.56556 1.42285 73.9023 -0.00706587 -5.73973 52.0113 0.244199 -2.09132 -39.0726 -10.6759 6.5843 2.57293 -14.5979 6.27997 
-1.0317905 0.4625700 0.0520390 9.76120 7.22418 -96.3048 -155.905 3.99062 -9.6847 -25.2177 -5.16934 28.4925 -14.0324 -16.1055 32.1213 -109.147 56.2524 118.862 -108.627 -31.8942 -143.133 140.718 -47.2588 -117.634 -46.3909 14.6651 -7.22157 -2.99141 1.52177 -17.1708 77.9629 -25.2201 42.258 30.7748 -46.6789 -42.6725 -60.9911 -18.5516 1.48618 -5.24517 0.875628 0.41048 -127.884 -3.64394 -22.0658 79.4203 8.94664 9.39203 39.2921 -2.85145 -5.65404 -126.794 3.62645 1.44358 73.8126 -0.0381916 -5.78535 52.2122 0.259305 -2.08674 -36.41 -13.8469 14.5584 4.17721 -18.0038 7.98955 
-1.0323646 0.4627850 0.0515985 9.96046 7.14453 -96.1268 -156.141 4.16637 -9.68575 -24.8927 -5.13201 28.9757 -13.613 -16.5642 32.46 -109.654 56.3998 118.297 -108.67 -31.8982 -143.25 140.607 -47.0498 -117.744 -46.2281 14.6825 -7.29556 -2.99598 1.50249 -17.0674 78.0328 -25.1391 42.3178 30.1456 -46.5276 -42.9781 -60.8081 -18.441 1.42295 -5.3633 0.856296 0.527769 -127.933 -3.54265 -22.244 79.3339 9.04514 9.42173 39.3835 -2.86737 -5.67338 -126.691 3.73225 1.29727 73.6012 -0.0479542 -5.80033 52.3799 0.26867 -2.0783 -32.9726 -16.4965 22.404 5.23021 -19.2345 8.75278 
-1.0328248 0.4630320 0.0511016 10.0920 7.01650 -95.8986 -156.431 4.3086 -9.62774 -24.5351 -5.13845 29.451 -13.05 -17.1294 32.7838 -109.991 56.4956 117.676 -108.674 -31.9092 -143.237 140.341 -46.8391 -117.836 -46.1632 14.7423 -7.37994 -3.22941 1.58803 -17.3883 78.0616 -25.1231 42.3955 29.5925 -46.3574 -43.3864 -60.6812 -18.1321 1.40412 -5.21433 0.84372 0.499089 -128.026 -3.47116 -22.4176 79.177 9.16835 9.52567 39.5692 -2.89468 -5.70848 -126.616 3.65551 0.887181 73.4234 0.223118 -5.59653 52.4016 0.208829 -2.13446 -28.9252 -18.348 30.0335 5.67117 -18.9917 8.73991 
-1.0332845 0.4632810 0.0505874 10.1286 6.94458 -95.6063 -156.668 4.40247 -9.45238 -24.1835 -5.21331 29.8941 -12.2004 -17.8647 33.1852 -110.207 56.4414 116.921 -108.557 -31.8523 -143.022 140.24 -46.6773 -117.88 -46.0323 14.7947 -7.43728 -3.53558 1.71862 -17.8887 78.1007 -25.0802 42.4374 28.9851 -46.1057 -43.7579 -60.3262 -18.1923 1.35046 -5.4748 0.886834 0.353366 -128.083 -3.44724 -22.4541 79.0065 9.2691 9.58622 39.7573 -2.92303 -5.74335 -126.542 3.57297 0.684232 73.3028 0.517806 -5.45198 52.531 0.154925 -2.19818 -24.5481 -19.3575 37.2525 5.62415 -17.942 8.27534 
